<svg width="134" height="160" viewBox="0 0 134 160" fill="none" xmlns="http://www.w3.org/2000/svg">
<circle cx="12.9213" cy="127.59" r="9" transform="rotate(-55 12.9213 127.59)" fill="#00ACF1"/>
<circle cx="28.9818" cy="104.654" r="9" transform="rotate(-55 28.9818 104.654)" fill="#00ACF1"/>
<circle cx="45.0414" cy="81.7176" r="9" transform="rotate(-55 45.0414 81.7176)" fill="#00ACF1"/>
<circle cx="61.1019" cy="58.7814" r="9" transform="rotate(-55 61.1019 58.7814)" fill="#00ACF1"/>
<circle cx="77.1615" cy="35.8451" r="9" transform="rotate(-55 77.1615 35.8451)" fill="#00ACF1"/>
<circle cx="93.2221" cy="12.9088" r="9" transform="rotate(-55 93.2221 12.9088)" fill="#00ACF1"/>
<circle cx="40.7728" cy="147.092" r="9" transform="rotate(-55 40.7728 147.092)" fill="#00ACF1"/>
<circle cx="56.8324" cy="124.155" r="9" transform="rotate(-55 56.8324 124.155)" fill="#00ACF1"/>
<circle cx="72.893" cy="101.219" r="9" transform="rotate(-55 72.893 101.219)" fill="#00ACF1"/>
<circle cx="88.9525" cy="78.283" r="9" transform="rotate(-55 88.9525 78.283)" fill="#00ACF1"/>
<circle cx="105.013" cy="55.3467" r="9" transform="rotate(-55 105.013 55.3467)" fill="#00ACF1"/>
<circle cx="121.074" cy="32.4104" r="9" transform="rotate(-55 121.074 32.4104)" fill="#00ACF1"/>
</svg>
